<mxfile host="app.diagrams.net" modified="2023-10-06T09:32:50.257Z" agent="Mozilla/5.0 (Macintosh; Intel Mac OS X 10_15_7) AppleWebKit/605.1.15 (KHTML, like Gecko) Version/17.0 Safari/605.1.15" version="22.0.3" etag="pLhsgQnQA6TKRmU6C-L1" type="github">
  <diagram name="Seite-1" id="pGpo4Mplg9-AZ32leIMH">
    <mxGraphModel>
      <root>
        <mxCell id="0" />
        <mxCell id="1" parent="0" />
      </root>
    </mxGraphModel>
  </diagram>
</mxfile>
